<svg xmlns="http://www.w3.org/2000/svg" version="1.1" xmlns:xlink="http://www.w3.org/1999/xlink" xmlns:svgjs="http://svgjs.dev/svgjs" width="1000" height="1000"><g clip-path="url(#SvgjsClipPath1066)"><rect width="1000" height="1000" fill="#aceb98"></rect><g transform="matrix(1.5373988410780057,0,0,1.5373988410780057,150.00000503221008,264.9084884677461)"><svg xmlns="http://www.w3.org/2000/svg" version="1.1" xmlns:xlink="http://www.w3.org/1999/xlink" xmlns:svgjs="http://svgjs.dev/svgjs" width="455.31451" height="305.83017"><svg width="455.31451" height="305.83017" viewBox="0 0 455.31451 305.83017" version="1.1" id="svg5" sodipodi:docname="bike-lock-final-content-smaller-lock.svg" inkscape:version="1.1.1 (3bf5ae0d25, 2021-09-20)" xmlns:inkscape="http://www.inkscape.org/namespaces/inkscape" xmlns:sodipodi="http://sodipodi.sourceforge.net/DTD/sodipodi-0.dtd" xmlns="http://www.w3.org/2000/svg" xmlns:svg="http://www.w3.org/2000/svg">
  <sodipodi:namedview id="namedview9" pagecolor="#ffffff" bordercolor="#999999" borderopacity="1" inkscape:pageshadow="0" inkscape:pageopacity="0" inkscape:pagecheckerboard="0" showgrid="false" inkscape:zoom="1.1629324" inkscape:cx="-300.10343" inkscape:cy="83.839783" inkscape:window-width="2560" inkscape:window-height="1369" inkscape:window-x="-8" inkscape:window-y="-8" inkscape:window-maximized="1" inkscape:current-layer="g15" fit-margin-top="0" fit-margin-left="0" fit-margin-right="0" fit-margin-bottom="0"></sodipodi:namedview>
  <defs id="defs2"><clipPath id="SvgjsClipPath1066"><rect width="1000" height="1000" x="0" y="0" rx="350" ry="350"></rect></clipPath></defs>
  <g id="layer1" transform="translate(-28.342752,-96.774012)">
    <g transform="matrix(0.17534253,0,0,-0.17534253,-175.95155,722.01329)" fill="#000000" stroke="none" id="g15">
      <path d="m 2849.2945,3428.0587 c -112,-11 -138,-25 -113,-59 12,-18 20,-20 62,-13 77,13 149,11 162,-5 18,-21 -10,-37 -79,-43 -83,-8 -90,-22 -54,-111 40,-100 41,-139 6,-181 l -30,-35 -233,13 c -129,7 -265,16 -303,20 l -68,6 -28,70 -28,70 46,22 c 26,13 68,26 95,29 37,5 47,10 47,26 0,28 -40,38 -161,38 h -110 l -46,35 c -57,44 -100,52 -147,30 -91,-43 -86,-174 7,-218 39,-19 102,-22 140,-8 23,9 25,6 46,-52 27,-77 26,-80 -3,-75 -22,5 -29,-4 -71,-94 -25,-54 -48,-98 -49,-98 -2,0 -22,7 -45,14 -85,31 -271,32 -271,3 0,-8 30,-12 98,-13 76,0 110,-5 157,-23 33,-13 72,-24 86,-25 24,-1 21,-6 -50,-90 -42,-49 -91,-106 -109,-125 l -33,-36 7,88 c 4,54 3,87 -3,87 -6,0 -13,-44 -16,-97 -7,-102 -22,-141 -31,-82 -3,19 -8,70 -11,113 -3,44 -9,84 -12,89 -7,11 -82,1 -145,-19 -25,-8 -68,-34 -95,-56 l -48,-42 45,48 c 98,105 237,122 383,49 27,-13 51,-22 54,-20 10,11 -71,60 -139,85 -60,21 -91,26 -173,27 -93,0 -105,-2 -166,-32 -41,-21 -82,-51 -108,-80 -51,-58 -152,-196 -147,-201 2,-2 19,4 37,13 31,16 32,16 24,-1 -4,-11 -9,-55 -12,-99 -12,-177 78,-364 221,-459 280,-186 676,-69 782,232 21,59 26,61 109,32 32,-11 66,-20 75,-20 15,0 29,-25 30,-52 0,-5 -16,-8 -36,-8 -33,0 -35,-2 -32,-27 l 3,-28 93,-3 92,-3 v 31 c 0,26 -3,30 -29,30 -22,0 -30,6 -35,25 -5,20 1,31 33,61 58,52 73,116 47,199 -5,15 17,54 83,148 81,117 137,189 98,127 -42,-68 -57,-145 -57,-296 v -146 l 24,15 c 23,16 24,15 29,-19 17,-105 143,-268 253,-326 109,-58 248,-73 375,-40 173,46 331,211 374,393 67,286 -88,567 -363,660 -74,25 -217,31 -283,12 l -35,-10 -17,63 c -9,34 -31,99 -48,144 -18,44 -29,83 -25,87 3,3 42,8 87,11 62,4 83,1 90,-9 21,-34 -9,-59 -71,-59 -41,0 -50,-3 -55,-21 -10,-31 11,-40 80,-33 103,11 119,40 100,184 -10,75 -43.8082,88.3528 -84.1268,115.6318 -95.1195,60.8148 -176.0407,59.7996 -272.8732,47.3682 z m 137,-137 c -10,-14 -30,-27 -50,-30 -32,-6 -35,-10 -35,-41 0,-18 14,-71 31,-117 47,-126 149,-423 149,-434 0,-18 -74,104 -112,184 -22,46 -43,82 -48,80 -16,-6 -159,-191 -272,-353 -61,-88 -113,-162 -114,-164 -2,-2 -17,7 -35,20 -18,13 -53,29 -78,35 l -46,13 h 36 c 39,1 48,11 258,279 105,136 140,193 87,143 -24,-23 -25,-23 -228,-16 -112,4 -229,10 -260,14 -32,4 -58,6 -58,5 0,-2 32,-86 71,-186 70,-182 91,-240 86,-244 -1,-1 -34,-5 -73,-9 l -70,-7 -19,67 c -10,37 -35,93 -58,127 -36,55 -38,61 -24,76 9,9 18,14 21,11 8,-8 86,-237 86,-253 0,-12 10,-16 35,-16 19,0 35,2 35,5 0,9 -102,290 -114,313 -11,22 -13,21 -66,-33 l -55,-55 18,-28 c 29,-44 75,-144 82,-179 l 7,-33 -44,1 c -24,0 -37,3 -31,6 10,3 9,13 -3,41 -19,48 -62,112 -73,112 -9,0 -235,-252 -229,-254 2,-1 108,1 236,4 229,5 233,5 230,-15 -3,-19 -11,-20 -251,-20 -231,0 -249,-1 -262,-19 -19,-25 -45,-14 -45,19 0,18 25,52 86,118 102,108 192,219 281,348 74,105 72,90 22,250 l -32,99 h -69 c -64,0 -72,3 -99,29 -34,34 -37,63 -9,91 24,24 32,25 70,5 24,-12 30,-22 30,-48 0,-51 9,-58 65,-48 28,5 78,16 113,26 35,9 68,14 75,11 7,-2 4,-5 -6,-5 -35,-2 -118,-43 -113,-57 33,-86 71,-166 80,-170 6,-2 148,-12 315,-22 l 303,-18 44,57 44,58 -36,101 c -20,56 -34,104 -31,106 3,3 29,9 59,13 29,4 62,12 73,19 31,18 37,14 20,-12 z m 365,-423 c 84,-23 143,-57 215,-124 163,-153 207,-393 110,-595 -35,-72 -110,-165 -167,-206 -24,-17 -20,-9 22,43 61,75 114,176 135,256 57,217 -51,451 -252,546 -58,27 -82,33 -159,35 -50,2 -108,-1 -128,-6 -34,-10 -38,-9 -48,14 -16,34 -3,43 73,53 75,9 124,5 199,-16 z m -427,-20 c -27,-21 -35,-15 -16,11 12,16 20,20 25,12 4,-6 0,-17 -9,-23 z m -311,8 88,-6 -109,-140 c -128,-166 -166,-208 -183,-203 -7,3 -37,65 -65,139 -29,74 -62,156 -72,182 l -20,49 137,-8 c 75,-3 176,-9 224,-13 z m 357,-43 c 7,-20 1,-30 -45,-71 -63,-56 -118,-160 -135,-252 -14,-76 -5,-210 20,-296 14,-51 16,-66 6,-66 -8,0 -11,7 -7,15 3,10 1,13 -6,8 -8,-5 -10,-1 -5,10 4,11 2,15 -4,11 -18,-11 -46,105 -39,158 6,36 5,45 -5,40 -9,-6 -11,6 -6,54 4,53 3,62 -10,57 -23,-9 -8,44 39,144 30,62 58,102 103,147 35,35 68,63 74,63 7,0 15,-10 20,-22 z m 414,-72 c 310,-137 316,-617 9,-768 -61,-30 -74,-33 -162,-33 -82,0 -103,4 -153,27 -70,33 -155,111 -190,176 -67,122 -74,293 -18,407 32,65 133,171 152,159 5,-3 29,-45 53,-92 24,-48 67,-125 95,-172 28,-47 51,-89 51,-93 0,-20 -23,10 -76,101 -75,126 -115,185 -121,178 -3,-3 5,-22 17,-43 13,-21 40,-68 61,-105 l 37,-67 -36,28 c -96,73 -177,129 -182,124 -6,-6 46,-50 147,-120 45,-32 81,-59 79,-60 -1,-1 -58,15 -127,37 -130,41 -150,46 -133,31 5,-5 66,-27 137,-51 70,-23 127,-45 127,-50 0,-10 -28,-16 -150,-30 -106,-13 -130,-18 -130,-29 0,-4 60,0 133,10 72,10 138,19 146,19 8,0 -30,-33 -85,-73 -89,-66 -136,-107 -121,-107 3,0 47,31 99,70 51,38 96,70 100,70 4,0 -4,-19 -17,-42 -35,-63 -97,-209 -92,-215 3,-2 38,62 77,144 87,177 97,173 75,-24 -16,-144 -18,-179 -8,-169 6,6 42,256 43,300 1,61 30,-42 75,-261 4,-18 10,-33 14,-33 7,0 -17,146 -44,265 l -6,30 26,-30 c 14,-16 51,-67 83,-112 31,-45 60,-82 65,-82 13,-1 -18,50 -92,152 -65,89 -77,117 -50,117 5,0 9,-6 9,-12 0,-16 186,-215 193,-208 3,3 -35,49 -84,103 -50,53 -88,97 -85,97 3,0 55,-24 115,-53 61,-29 111,-49 111,-45 0,4 -54,35 -121,69 -67,33 -120,61 -118,63 4,3 110,-6 229,-19 43,-5 62,-4 55,3 -11,11 -165,32 -241,32 l -49,1 60,23 c 33,12 96,35 140,51 44,16 73,31 65,32 -8,2 -67,-15 -130,-36 -63,-22 -117,-37 -120,-34 -3,3 1,8 9,11 10,3 10,6 2,12 -13,8 25,44 128,123 35,27 60,51 57,54 -6,6 -89,-53 -174,-124 -28,-25 -56,-43 -62,-41 -5,2 13,32 41,67 55,71 124,189 116,197 -3,3 -11,-5 -17,-18 -24,-46 -123,-188 -131,-188 -18,0 -16,20 12,119 29,105 37,152 20,121 -4,-8 -21,-62 -37,-118 -23,-85 -30,-101 -39,-88 -11,14 -13,13 -23,-7 -11,-21 -11,-21 -6,5 7,31 -24,216 -37,224 -14,8 -10,-33 10,-126 11,-47 17,-87 15,-89 -4,-5 -46,87 -76,167 -11,29 -17,56 -14,59 30,31 189,25 269,-11 z m -1689,-113 c 4,-32 9,-78 12,-103 l 6,-45 -56,89 c -31,49 -55,90 -54,92 8,7 54,23 69,23 13,1 18,-12 23,-56 z m -45,-87 c 57,-93 60,-101 45,-118 -20,-21 -30,-17 -134,62 -108,82 -108,82 -63,117 50,39 77,53 85,45 4,-4 34,-52 67,-106 z m -285,41 c -92,-173 -83,-354 23,-494 15,-20 48,-49 72,-65 37,-23 56,-28 105,-28 l 61,1 -53,25 c -158,77 -246,264 -199,425 15,49 76,139 77,113 0,-7 45,-46 100,-88 54,-42 102,-81 105,-86 15,-24 -24,-16 -129,26 -64,25 -121,44 -127,42 -7,-2 44,-27 112,-56 l 124,-51 -71,-1 c -92,0 -164,-10 -164,-22 0,-6 10,-8 23,-5 12,3 63,9 112,12 l 90,7 -92,-66 c -85,-62 -113,-86 -98,-86 3,0 50,32 104,70 54,39 101,70 104,70 4,0 11,-9 18,-21 9,-18 2,-34 -60,-124 -39,-57 -71,-106 -71,-110 0,-17 36,25 97,112 35,51 69,91 74,88 5,-4 9,-66 9,-140 0,-182 19,-188 22,-8 l 3,138 23,-60 c 13,-33 33,-95 45,-137 12,-43 25,-78 30,-78 14,0 6,36 -33,153 -22,66 -40,121 -40,123 0,2 8,4 18,4 9,0 57,-45 107,-100 49,-55 93,-100 98,-100 10,0 -37,61 -107,138 l -51,55 52,-6 c 29,-3 74,-18 100,-32 42,-23 45,-24 23,-5 l -25,22 70,-7 c 100,-11 101,-11 65,-82 -80,-159 -232,-245 -435,-245 -171,1 -274,46 -348,153 -54,79 -79,158 -85,265 -6,136 13,193 89,267 33,31 62,57 64,57 1,0 -12,-28 -31,-63 z m 685,-32 c 39,-88 38,-89 -64,-96 -49,-4 -91,-6 -92,-5 -3,3 122,145 129,146 4,0 16,-20 27,-45 z m 420,-139 c 80,-42 82,-155 4,-195 -32,-16 -41,20 -14,55 26,33 27,58 1,84 -39,39 -110,11 -110,-44 0,-12 14,-37 30,-54 33,-35 38,-52 15,-52 -32,0 -73,30 -90,66 -47,99 62,192 164,140 z m 436,-402 c 33,-33 74,-70 90,-83 l 30,-22 -34,18 c -45,23 -141,120 -164,164 -16,31 -16,32 0,9 9,-14 44,-52 78,-86 z" id="path11" style="fill:#000000" sodipodi:nodetypes="cccccccccccccccssccccccccscscccccccsccccccccccccccsccccccscsccccsscccccscccccccccccsccscccccccscsccccscccccccscccccccsssscccccccccscccscsccccscscsscccccccccccccccccccccccccccccccccccccccccccscccccccccsscccscccccssccccccscccccscscscscsccccsccsccccccssscscscccscccsccscccscccscscccccccccccccccccccccccsccccccccccccccccsccccscsccsccsccccsssscsccccccccccccscccscccccsscsccscccccs"></path>
      <g style="fill:#000000" id="g118" transform="matrix(19.183975,0,0,-19.183975,1174.2297,3604.1844)">
        <path d="m 12,2 a 5,5 0 0 1 5,5 v 3 a 3,3 0 0 1 3,3 v 6 a 3,3 0 0 1 -3,3 H 7 A 3,3 0 0 1 4,19 V 13 A 3,3 0 0 1 7,10 V 7 a 5,5 0 0 1 5,-5 m 0,12 a 2,2 0 0 0 -1.995,1.85 L 10,16 a 2,2 0 1 0 2,-2 M 12,4 A 3,3 0 0 0 9,7 v 3 h 6 V 7 A 3,3 0 0 0 12,4" id="path108" style="fill:#000000"></path>
      </g>
    </g>
  </g>
</svg></svg></g></g></svg>