<svg width="18" height="20.485" viewBox="0 0 4.763 5.42" xmlns="http://www.w3.org/2000/svg">
  <defs>
    <linearGradient id="a" x1="13.289" x2="3.215" y1="21.059" y2="9.803" gradientUnits="userSpaceOnUse">
      <stop stop-color="#004eff" offset="0"/>
      <stop stop-color="#00b1ff" offset="1"/>
    </linearGradient>
  </defs>
  <path d="M18.364 4.636a9 9 0 0 1 .203 12.519l-.203.21-4.243 4.242a3 3 0 0 1-4.097.135l-.144-.135-4.244-4.243A9 9 0 1 1 18.364 4.636" fill="url(#a)" style="mix-blend-mode:normal" transform="translate(-.793 -.529)scale(.26458)"/>
  <path d="M1.018 3.46a.41.41 0 1 0 .818 0 .41.41 0 1 0-.818 0m1.91 0a.41.41 0 1 0 .818 0 .41.41 0 1 0-.819 0m-.545.136v-.545l-.41-.41.682-.545.273.41h.41m-.41-.82a.136.136 0 1 0 .273 0 .136.136 0 1 0-.273 0" stroke-width=".273" fill="none" stroke="#fff" stroke-linecap="round" stroke-linejoin="round"/>
</svg>
