<svg width="18" height="20.485" viewBox="0 0 4.763 5.42" xmlns="http://www.w3.org/2000/svg">
  <defs>
    <linearGradient id="a" x1="13.289" x2="3.215" y1="21.059" y2="9.803" gradientUnits="userSpaceOnUse">
      <stop stop-color="#0046e6" offset="0"/>
      <stop stop-color="#009fe6" offset="1"/>
    </linearGradient>
  </defs>
  <path d="M18.364 4.636a9 9 0 0 1 .203 12.519l-.203.21-4.243 4.242a3 3 0 0 1-4.097.135l-.144-.135-4.244-4.243A9 9 0 1 1 18.364 4.636" fill="url(#a)" style="mix-blend-mode:normal" transform="translate(-.793 -.529)scale(.26458)"/>
  <g fill="none" stroke="#fff" stroke-linecap="round" stroke-linejoin="round" stroke-width=".301">
    <path d="M.953 1.583a.15.15 0 0 1 .15-.15h.301a.15.15 0 0 1 .15.15v.601a.15.15 0 0 1-.15.15h-.3a.15.15 0 0 1-.15-.15zm1.955 1.954a.3.3 0 1 0 .602 0 .3.3 0 1 0-.602 0"/>
    <path d="M2.006 1.733h1.052c.416 0 .752.471.752 1.053v.751h-.3m-.602 0H1.705"/>
    <path d="m2.908 1.733.226 1.053h.676m-1.88-.301h1.128m-.751-.752v.752m-1.053-.15v1.654"/>
  </g>
  <path d="M2.382.42a.19.19 0 0 1 .19.19v.114a.114.114 0 0 1 .115.114v.229a.114.114 0 0 1-.114.114h-.38a.114.114 0 0 1-.115-.114V.838a.114.114 0 0 1 .114-.114V.61a.19.19 0 0 1 .19-.19m0 .456a.076.076 0 0 0-.076.07v.006a.076.076 0 1 0 .076-.076m0-.38a.114.114 0 0 0-.114.114v.114h.228V.61a.114.114 0 0 0-.114-.114" fill="#fff"/>
</svg>
